<svg xmlns="http://www.w3.org/2000/svg" viewBox="0 0 186.99 54.85"><defs><style>.cls-1{fill:#fff;}</style></defs><g id="Capa_2" data-name="Capa 2"><g id="Capa_1-2" data-name="Capa 1"><path class="cls-1" d="M27.55,29.09A1.61,1.61,0,1,0,26,27.48a1.62,1.62,0,0,0,1.6,1.61"/><path class="cls-1" d="M31.77,28.54A1.83,1.83,0,1,0,30,26.71a1.82,1.82,0,0,0,1.82,1.83"/><path class="cls-1" d="M36.24,26.45a2.17,2.17,0,1,0-2.17-2.17,2.17,2.17,0,0,0,2.17,2.17"/><path class="cls-1" d="M39.92,26.57A3.09,3.09,0,1,1,43,29.66a3.08,3.08,0,0,1-3.08-3.09"/><path class="cls-1" d="M50.83,28.27a4,4,0,1,0-4-4,4,4,0,0,0,4,4"/><path class="cls-1" d="M50.33,36.82a4,4,0,1,0-3.95-4,4,4,0,0,0,3.95,4"/><path class="cls-1" d="M42.91,41a4,4,0,1,1,4,4,4,4,0,0,1-4-4"/><path class="cls-1" d="M40.75,51a4,4,0,1,0-4-4,4,4,0,0,0,4,4"/><path class="cls-1" d="M28.89,50.41a4,4,0,1,1,4,4,4,4,0,0,1-4-4"/><path class="cls-1" d="M20.14,50.9a4,4,0,1,1,4,4,4,4,0,0,1-4-4"/><path class="cls-1" d="M11.65,48a4,4,0,1,1,4,3.95,4,4,0,0,1-4-3.95"/><path class="cls-1" d="M5.17,42.43a4,4,0,1,1,3.95,4,3.95,3.95,0,0,1-3.95-4"/><path class="cls-1" d="M1,34.71A4,4,0,1,1,5,38.66,3.95,3.95,0,0,1,1,34.71"/><path class="cls-1" d="M0,25.75a4,4,0,1,1,4,4,3.94,3.94,0,0,1-3.95-4"/><path class="cls-1" d="M48.29,20.35a4,4,0,1,0-3.95-4,4,4,0,0,0,3.95,4"/><path class="cls-1" d="M39,9.85a4,4,0,1,1,3.94,4,3.94,3.94,0,0,1-3.94-4"/><path class="cls-1" d="M31.69,5.45a4,4,0,1,1,3.95,4,4,4,0,0,1-3.95-4"/><path class="cls-1" d="M23.15,4a4,4,0,1,1,4,4,4,4,0,0,1-4-4"/><path class="cls-1" d="M18.52,9.77a4,4,0,1,0-4-3.95,4,4,0,0,0,4,3.95"/><path class="cls-1" d="M7.28,10.41a4,4,0,1,1,4,3.95,4,4,0,0,1-4-3.95"/><path class="cls-1" d="M2.28,17.28a4,4,0,1,1,4,3.95,4,4,0,0,1-4-3.95"/><path class="cls-1" d="M33.43,15.07a3.09,3.09,0,1,1,3.09,3.08,3.1,3.1,0,0,1-3.09-3.08"/><path class="cls-1" d="M27.14,12.27a3.1,3.1,0,1,1,3.1,3.09,3.1,3.1,0,0,1-3.1-3.09"/><path class="cls-1" d="M38.85,33.13A3.09,3.09,0,1,1,42,36.22a3.09,3.09,0,0,1-3.1-3.09"/><path class="cls-1" d="M41.07,23.19A3.09,3.09,0,1,0,38,20.11a3.08,3.08,0,0,0,3.09,3.08"/><path class="cls-1" d="M20.25,12.56a3.1,3.1,0,1,1,3.1,3.1,3.09,3.09,0,0,1-3.1-3.1"/><path class="cls-1" d="M14.13,15.8a3.09,3.09,0,1,1,3.08,3.09,3.08,3.08,0,0,1-3.08-3.09"/><path class="cls-1" d="M10.18,21.41a3.09,3.09,0,1,1,3.09,3.09,3.09,3.09,0,0,1-3.09-3.09"/><path class="cls-1" d="M8.79,28.5a3.09,3.09,0,1,1,3.09,3.09A3.08,3.08,0,0,1,8.79,28.5"/><path class="cls-1" d="M11,35.47a3.09,3.09,0,1,1,3.09,3.09A3.09,3.09,0,0,1,11,35.47"/><path class="cls-1" d="M16,40.55a3.09,3.09,0,1,1,3.09,3.09A3.09,3.09,0,0,1,16,40.55"/><path class="cls-1" d="M22.39,42.9A3.09,3.09,0,1,1,25.48,46a3.09,3.09,0,0,1-3.09-3.09"/><path class="cls-1" d="M32.42,45.34a3.09,3.09,0,1,0-3.09-3.09,3.09,3.09,0,0,0,3.09,3.09"/><path class="cls-1" d="M38.17,41.88a3.09,3.09,0,1,0-3.09-3.09,3.1,3.1,0,0,0,3.09,3.09"/><path class="cls-1" d="M28.88,25.38a1.83,1.83,0,1,0-1.83-1.83,1.83,1.83,0,0,0,1.83,1.83"/><path class="cls-1" d="M22.8,24.28a1.83,1.83,0,1,1,1.82,1.83,1.83,1.83,0,0,1-1.82-1.83"/><path class="cls-1" d="M23.31,30.33a1.83,1.83,0,1,0-1.84-1.83,1.83,1.83,0,0,0,1.84,1.83"/><path class="cls-1" d="M26.28,33.49a1.83,1.83,0,1,0-1.83-1.82,1.82,1.82,0,0,0,1.83,1.82"/><path class="cls-1" d="M30.34,32.64a1.83,1.83,0,1,0-1.84-1.83,1.83,1.83,0,0,0,1.84,1.83"/><path class="cls-1" d="M25.85,18.12A2.18,2.18,0,1,1,28,20.29a2.18,2.18,0,0,1-2.18-2.17"/><path class="cls-1" d="M30.88,19.9a2.18,2.18,0,1,1,2.17,2.18,2.17,2.17,0,0,1-2.17-2.18"/><path class="cls-1" d="M22.91,21.39a2.17,2.17,0,1,0-2.18-2.17,2.18,2.18,0,0,0,2.18,2.17"/><path class="cls-1" d="M17.11,22.86A2.18,2.18,0,1,1,19.29,25a2.18,2.18,0,0,1-2.18-2.17"/><path class="cls-1" d="M15.94,28.34a2.18,2.18,0,1,1,2.18,2.17,2.18,2.18,0,0,1-2.18-2.17"/><path class="cls-1" d="M20.23,35.57a2.17,2.17,0,1,0-2.17-2.17,2.17,2.17,0,0,0,2.17,2.17"/><path class="cls-1" d="M24.62,38.63a2.18,2.18,0,1,0-2.17-2.18,2.18,2.18,0,0,0,2.17,2.18"/><path class="cls-1" d="M27.54,36.64a2.18,2.18,0,1,1,2.18,2.17,2.18,2.18,0,0,1-2.18-2.17"/><path class="cls-1" d="M34.14,36.29A2.18,2.18,0,1,0,32,34.11a2.18,2.18,0,0,0,2.18,2.18"/><path class="cls-1" d="M34.38,29.39a2.18,2.18,0,1,1,2.17,2.17,2.17,2.17,0,0,1-2.17-2.17"/><path class="cls-1" d="M76.73,12.4l-.35,2.48c0-.33.07-.57,0,0a5.07,5.07,0,0,0-3.3-1,6.8,6.8,0,0,0-6.24,3.58,10.9,10.9,0,0,0-1.47,6.24,4.71,4.71,0,0,0,2,3.94,6.18,6.18,0,0,0,3.45,1,6.3,6.3,0,0,0,3.67-1.06h0a13.92,13.92,0,0,1-.19,1.77l-.19,1.44a12.25,12.25,0,0,1-3.58.57,12,12,0,0,1-5-1Q61.89,28.7,61.62,24a12.94,12.94,0,0,1,.59-4.72,11.05,11.05,0,0,1,4.84-6.37,13,13,0,0,1,6.7-1.77,8.47,8.47,0,0,1,3.12.58,1.6,1.6,0,0,0-.14.65"/><path class="cls-1" d="M88.08,13.89A6.81,6.81,0,0,0,84.24,15a8,8,0,0,0-3.16,4.59,11.34,11.34,0,0,0-.48,4,6.21,6.21,0,0,0,1.07,3.21,4.72,4.72,0,0,0,4.15,1.84,6.66,6.66,0,0,0,6-3.42,9.86,9.86,0,0,0,1.19-3,11.5,11.5,0,0,0,.3-3.27,5.06,5.06,0,0,0-2.17-4.27,5.57,5.57,0,0,0-3.06-.81m.44-2.72A9,9,0,0,1,95,13.38a7,7,0,0,1,2.12,4.85,15.19,15.19,0,0,1-.78,5.68,10.23,10.23,0,0,1-5,6.05,12.29,12.29,0,0,1-5.9,1.37,9,9,0,0,1-6.51-2.21,7,7,0,0,1-2.12-4.81,15.25,15.25,0,0,1,.79-5.7,10.35,10.35,0,0,1,5.05-6.06,12.36,12.36,0,0,1,5.9-1.38"/><polygon class="cls-1" points="118.93 11.6 115.98 30.92 112.57 30.92 103.78 17.15 101.67 30.92 98.25 30.92 101.2 11.6 104.53 11.6 113.39 25.52 115.5 11.6 118.93 11.6"/><path class="cls-1" d="M131.82,23.16l-1.71-7.6L126,23.16Zm1-11.56,4.57,19.32h-3.85l-1.2-5.19H124.6l-2.77,5.19h-3.66L129,11.6h3.82"/><polygon class="cls-1" points="173.68 11.6 171.89 11.6 169.85 11.6 163.91 19.43 160.18 11.6 155.98 11.6 161.45 22.68 160.19 30.92 163.67 30.92 164.94 22.61 171.54 14.3 177.17 14.3 174.64 30.92 178.12 30.92 180.65 14.3 186.57 14.3 186.99 11.6 173.68 11.6"/><path class="cls-1" d="M154.32,12.27,154,14.75c0-.34.07-.57,0,0a5.06,5.06,0,0,0-3.31-1,6.81,6.81,0,0,0-6.24,3.58A10.82,10.82,0,0,0,143,23.58a4.69,4.69,0,0,0,2,3.94,6.76,6.76,0,0,0,7.12-.11h0a12.62,12.62,0,0,1-.19,1.78c-.07.6-.08.69-.18,1.43a12.26,12.26,0,0,1-3.58.58,11.85,11.85,0,0,1-5.05-1c-2.37-1.1-3.66-3.21-3.85-6.32a13.17,13.17,0,0,1,.6-4.72,11.05,11.05,0,0,1,4.84-6.37A12.86,12.86,0,0,1,151.34,11a8.45,8.45,0,0,1,3.11.58,1.7,1.7,0,0,0-.13.65"/><path class="cls-1" d="M64.9,41.47a3.22,3.22,0,0,1-1.5.38,1.88,1.88,0,0,1-2-2.44,2.93,2.93,0,0,1,3-2.45,3.22,3.22,0,0,1,1.43.32,2,2,0,0,0-.24.53h0a1.46,1.46,0,0,0-1.18-.61,2.37,2.37,0,0,0-2.32,2.2c-.29,1.52.39,2.19,1.46,2.19A2.75,2.75,0,0,0,65,41l0,0-.13.41"/><path class="cls-1" d="M67.13,41.62c.79,0,1.19-.72,1.34-1.49s0-1.48-.78-1.48-1.19.72-1.34,1.48,0,1.49.78,1.49m.61-3.19a1.27,1.27,0,0,1,1.33,1.7,2,2,0,0,1-2,1.7,1.27,1.27,0,0,1-1.33-1.7,2,2,0,0,1,2-1.7"/><path class="cls-1" d="M71.57,38.78c-.63,0-1,.41-1.14,1.12l-.11.59a11.64,11.64,0,0,0-.19,1.28,1.06,1.06,0,0,0-.31,0,1.15,1.15,0,0,0-.31,0c.12-.4.22-.87.3-1.28l.14-.72a11.47,11.47,0,0,0,.19-1.27,1.55,1.55,0,0,0,.31,0l.28,0a5.29,5.29,0,0,0-.13.54h0a1.55,1.55,0,0,1,1.22-.61c.5,0,1,.25.85,1.19-.07.39-.17.8-.27,1.26-.06.3-.11.59-.15.89a1,1,0,0,0-.28,0,1,1,0,0,0-.29,0c.11-.5.25-1,.34-1.53l.09-.41c.12-.67-.1-1-.55-1"/><path class="cls-1" d="M73.4,41.11a.77.77,0,0,0,.69.47.76.76,0,0,0,.77-.62c.17-.84-1.54-.34-1.31-1.5a1.28,1.28,0,0,1,1.33-1,1.88,1.88,0,0,1,.73.19,1.68,1.68,0,0,0-.26.49h-.09a.49.49,0,0,0-.51-.43.69.69,0,0,0-.69.58c-.19.89,1.54.34,1.32,1.49a1.49,1.49,0,0,1-1.45,1.08,1.52,1.52,0,0,1-.84-.22,1.62,1.62,0,0,0,.23-.5h.08"/><path class="cls-1" d="M76.69,39.83l.88,0,.91,0c.1-.48.1-1.18-.61-1.18s-1.05.69-1.18,1.18m1.22-1.4a1.06,1.06,0,0,1,1.14,1.4c0,.09,0,.17-.07.26l-1.46,0-.9,0a1.62,1.62,0,0,0,0,.19c-.14.71.18,1.27.94,1.27a1.83,1.83,0,0,0,1.11-.49l0,0-.1.34a2.34,2.34,0,0,1-1.22.41A1.26,1.26,0,0,1,76,40.22a2,2,0,0,1,1.92-1.79"/><path class="cls-1" d="M80.74,37a.28.28,0,0,1,.29.35.45.45,0,0,1-.41.35.29.29,0,0,1-.29-.35.46.46,0,0,1,.41-.35m-.84,3.09c.1-.54.21-1.16.24-1.55a1.55,1.55,0,0,0,.31,0l.31,0a11.15,11.15,0,0,0-.3,1.27l-.14.72c-.11.52-.18,1-.28,1.57a1.79,1.79,0,0,1-.42,1,1.51,1.51,0,0,1-1.09.52v-.23h.1c.53,0,.75-.69.87-1.28l.4-2"/><path class="cls-1" d="M82.69,41.62c.81,0,1.2-.72,1.35-1.49s0-1.48-.77-1.48-1.19.72-1.34,1.48,0,1.49.76,1.49m.63-3.19a1.28,1.28,0,0,1,1.33,1.7,2,2,0,0,1-2,1.7,1.27,1.27,0,0,1-1.33-1.7,2,2,0,0,1,2-1.7"/><path class="cls-1" d="M91,41.85c-.8-1.22-1.79-2.53-2.72-3.78-.06.26-.16.67-.29,1.39s-.37,2-.38,2.31a.64.64,0,0,0-.24,0,.82.82,0,0,0-.26,0c.12-.32.55-2.08.72-3s.29-1.52.34-1.83h.11c.88,1.21,2.06,2.86,2.73,3.7.24-1.23.5-2.56.65-3.61a.83.83,0,0,0,.22,0,.85.85,0,0,0,.23,0c-.11.4-.45,1.76-.54,2.29-.15.7-.43,2.21-.48,2.51H91"/><path class="cls-1" d="M94.39,40.05c-.5.15-1.45.1-1.59.85a.48.48,0,0,0,.47.65,1.24,1.24,0,0,0,.89-.48l.23-1m-1.45-1.22a2,2,0,0,1,1.18-.4.82.82,0,0,1,.91,1c-.1.51-.22,1-.34,1.59,0,.23-.09.51.17.51a.29.29,0,0,0,.15,0l0,.15a1.15,1.15,0,0,1-.45.1.36.36,0,0,1-.39-.43,1.71,1.71,0,0,1-1.18.5.69.69,0,0,1-.74-.84,1.19,1.19,0,0,1,1.14-.93c1-.16,1.07-.22,1.12-.48.09-.46,0-.86-.58-.86a1.23,1.23,0,0,0-1,.46h-.07l.07-.35"/><path class="cls-1" d="M97.87,38.43a1.54,1.54,0,0,1,1,.3,2.42,2.42,0,0,0-.24.45h-.06a.81.81,0,0,0-.77-.53c-.83,0-1.28.64-1.45,1.48s.15,1.42.91,1.42a1.88,1.88,0,0,0,1.12-.49l0,0c0,.11-.08.22-.11.34a2.28,2.28,0,0,1-1.22.41,1.28,1.28,0,0,1-1.33-1.7,2.05,2.05,0,0,1,2.07-1.7"/><path class="cls-1" d="M100.5,37a.28.28,0,0,1,.28.35.46.46,0,0,1-.42.35.28.28,0,0,1-.28-.35.46.46,0,0,1,.42-.35m-.8,2.81a9.51,9.51,0,0,0,.19-1.27,1.54,1.54,0,0,0,.3,0,1.75,1.75,0,0,0,.32,0c-.12.39-.23.87-.31,1.27l-.13.72a9.7,9.7,0,0,0-.2,1.28,1,1,0,0,0-.3,0,1.1,1.1,0,0,0-.31,0c.11-.4.22-.87.3-1.28l.14-.72"/><path class="cls-1" d="M102.44,41.62c.81,0,1.2-.72,1.35-1.49s0-1.48-.77-1.48-1.2.72-1.34,1.48,0,1.49.76,1.49m.62-3.19a1.27,1.27,0,0,1,1.33,1.7,2,2,0,0,1-2,1.7,1.27,1.27,0,0,1-1.33-1.7,2,2,0,0,1,2-1.7"/><path class="cls-1" d="M106.89,38.78c-.63,0-1,.41-1.13,1.12l-.12.59a11.64,11.64,0,0,0-.19,1.28,1,1,0,0,0-.3,0,1.06,1.06,0,0,0-.31,0c.11-.4.22-.87.3-1.28l.14-.72c.07-.4.15-.88.19-1.27a1.53,1.53,0,0,0,.3,0,1.39,1.39,0,0,0,.27,0l-.12.54h0a1.52,1.52,0,0,1,1.21-.61c.5,0,1,.25.86,1.19-.07.39-.18.8-.28,1.26,0,.3-.11.59-.15.89a1,1,0,0,0-.28,0,.86.86,0,0,0-.28,0c.1-.5.23-1,.34-1.53l.08-.41c.13-.67-.1-1-.55-1"/><path class="cls-1" d="M110.72,40.05c-.5.15-1.45.1-1.59.85a.49.49,0,0,0,.46.65,1.27,1.27,0,0,0,.91-.48l.22-1m-1.45-1.22a2,2,0,0,1,1.18-.4c.66,0,1,.41.91,1s-.22,1-.33,1.59c0,.23-.11.51.16.51a.29.29,0,0,0,.15,0l0,.15a1.11,1.11,0,0,1-.45.1.36.36,0,0,1-.39-.43,1.71,1.71,0,0,1-1.18.5.69.69,0,0,1-.74-.84,1.2,1.2,0,0,1,1.14-.93c1-.16,1.08-.22,1.13-.48.09-.46,0-.86-.59-.86a1.17,1.17,0,0,0-.94.46h-.09l.07-.35"/><path class="cls-1" d="M112.85,38.56c.12-.63.28-1.51.33-2a1,1,0,0,0,.3,0,1.15,1.15,0,0,0,.31,0c-.12.46-.31,1.34-.44,2l-.23,1.23c-.12.64-.28,1.51-.33,2a1.06,1.06,0,0,0-.31,0,1,1,0,0,0-.3,0c.12-.47.3-1.34.43-2l.24-1.23"/><path class="cls-1" d="M117.2,41.58c.7,0,1.16-.77,1.3-1.52s-.08-1.34-.73-1.34-1.08.65-1.25,1.47c-.21,1.1.23,1.39.68,1.39m1.1-.48h0a1.58,1.58,0,0,1-1.3.73c-.69,0-1.29-.5-1.07-1.68a2,2,0,0,1,1.82-1.72.83.83,0,0,1,.91.68h0c.17-.86.38-1.93.47-2.52a1.54,1.54,0,0,0,.3,0,2,2,0,0,0,.31,0c-.16.58-.53,2.37-.76,3.54-.13.61-.2,1.09-.3,1.64a1.38,1.38,0,0,0-.26,0,1.36,1.36,0,0,0-.27,0l.15-.67"/><path class="cls-1" d="M120.36,39.83l.89,0,.91,0c.1-.48.11-1.18-.61-1.18s-1.06.69-1.19,1.18m1.22-1.4a1.06,1.06,0,0,1,1.14,1.4,2.44,2.44,0,0,1-.06.26l-1.46,0-.9,0a1.62,1.62,0,0,0,0,.19c-.14.71.17,1.27.93,1.27a1.83,1.83,0,0,0,1.12-.49l0,0-.11.34a2.28,2.28,0,0,1-1.22.41,1.27,1.27,0,0,1-1.34-1.61,1.94,1.94,0,0,1,1.91-1.79"/><path class="cls-1" d="M128.71,41.47a3.18,3.18,0,0,1-1.5.38,1.87,1.87,0,0,1-2-2.44,2.94,2.94,0,0,1,3-2.45,3.24,3.24,0,0,1,1.42.32,2.87,2.87,0,0,0-.25.53h0a1.46,1.46,0,0,0-1.18-.61,2.36,2.36,0,0,0-2.32,2.2c-.3,1.52.39,2.19,1.46,2.19a2.78,2.78,0,0,0,1.5-.57l0,0-.13.41"/><path class="cls-1" d="M130.89,37a.28.28,0,0,1,.28.35.45.45,0,0,1-.42.35.28.28,0,0,1-.28-.35.45.45,0,0,1,.42-.35m-.8,2.81a11.47,11.47,0,0,0,.19-1.27,1.54,1.54,0,0,0,.3,0,1.76,1.76,0,0,0,.31,0c-.11.39-.22.87-.3,1.27l-.13.72a11.7,11.7,0,0,0-.2,1.28,1,1,0,0,0-.3,0,1.1,1.1,0,0,0-.31,0c.11-.4.22-.87.3-1.28l.14-.72"/><path class="cls-1" d="M132.13,39.83l.89,0,.92,0c.09-.48.09-1.18-.61-1.18s-1.06.69-1.2,1.18m1.22-1.4a1.07,1.07,0,0,1,1.15,1.4,2.5,2.5,0,0,1-.07.26l-1.45,0-.9,0a.72.72,0,0,0,0,.19c-.15.71.17,1.27.93,1.27a1.83,1.83,0,0,0,1.12-.49l0,0-.1.34a2.41,2.41,0,0,1-1.23.41,1.27,1.27,0,0,1-1.35-1.61,2,2,0,0,1,1.91-1.79"/><path class="cls-1" d="M136.9,38.78c-.64,0-1,.41-1.14,1.12l-.11.59a9.7,9.7,0,0,0-.2,1.28,1,1,0,0,0-.3,0,1.15,1.15,0,0,0-.31,0c.11-.4.22-.87.3-1.28l.14-.72c.08-.4.16-.88.2-1.27a1.36,1.36,0,0,0,.29,0l.28,0c0,.18-.09.36-.13.54h0a1.54,1.54,0,0,1,1.22-.61c.5,0,1,.25.85,1.19-.08.39-.18.8-.27,1.26-.05.3-.11.59-.15.89a1,1,0,0,0-.28,0,1,1,0,0,0-.29,0c.11-.5.24-1,.34-1.53l.08-.41c.13-.67-.09-1-.54-1"/><path class="cls-1" d="M140.79,38.43a1.56,1.56,0,0,1,1.05.3,3.21,3.21,0,0,0-.24.45h0a.82.82,0,0,0-.77-.53c-.83,0-1.29.64-1.45,1.48s.15,1.42.9,1.42a1.86,1.86,0,0,0,1.12-.49l0,0a1.93,1.93,0,0,0-.11.34,2.28,2.28,0,0,1-1.21.41,1.28,1.28,0,0,1-1.34-1.7,2.06,2.06,0,0,1,2.07-1.7"/><path class="cls-1" d="M143.42,37a.3.3,0,0,1,.29.35.46.46,0,0,1-.43.35.27.27,0,0,1-.27-.35.44.44,0,0,1,.41-.35m-.8,2.81c.08-.4.16-.88.2-1.27a1.35,1.35,0,0,0,.29,0,1.87,1.87,0,0,0,.32,0c-.12.39-.22.87-.3,1.27l-.15.72c-.07.41-.15.88-.19,1.28a1,1,0,0,0-.3,0,1.15,1.15,0,0,0-.31,0c.11-.4.23-.87.3-1.28l.14-.72"/><path class="cls-1" d="M146,40.05c-.5.15-1.44.1-1.59.85a.48.48,0,0,0,.47.65,1.26,1.26,0,0,0,.9-.48l.22-1m-1.45-1.22a2.05,2.05,0,0,1,1.19-.4c.65,0,1,.41.9,1s-.22,1-.34,1.59c0,.23-.09.51.18.51a.27.27,0,0,0,.14,0l0,.15a1.12,1.12,0,0,1-.46.1c-.29,0-.39-.2-.38-.43a1.69,1.69,0,0,1-1.17.5.7.7,0,0,1-.75-.84,1.2,1.2,0,0,1,1.15-.93c1-.16,1.06-.22,1.12-.48.08-.46,0-.86-.59-.86a1.2,1.2,0,0,0-1,.46h-.08l.07-.35"/><path class="cls-1" d="M149.54,38.5a1.6,1.6,0,0,0,.3,0,1.66,1.66,0,0,0,.32,0c.12.86.31,1.71.51,2.62a22.7,22.7,0,0,0,1.53-2.62.83.83,0,0,0,.22,0l.23,0c-.34.5-2.72,4.13-3.18,5.06a.83.83,0,0,0-.22,0l-.25,0a15.39,15.39,0,0,0,1.26-1.79c-.15-.82-.62-2.84-.72-3.27"/><path class="cls-1" d="M156.26,38.82c.09-.47.18-.94.26-1.41a13.8,13.8,0,0,0-1.49.07,1,1,0,0,0,.09-.21v-.22c.58,0,1.17,0,1.76,0s1.18,0,1.77,0a.83.83,0,0,0-.08.22.74.74,0,0,0,0,.21,13,13,0,0,0-1.45-.07q-.17.71-.3,1.41L156.59,40c-.11.58-.2,1.17-.28,1.77a1.29,1.29,0,0,0-.33,0,1.45,1.45,0,0,0-.35,0c.15-.6.29-1.19.4-1.77l.23-1.18"/><path class="cls-1" d="M158.56,39.83l.88,0,.92,0c.09-.48.09-1.18-.62-1.18s-1.05.69-1.18,1.18m1.22-1.4a1.06,1.06,0,0,1,1.14,1.4,1.25,1.25,0,0,1-.07.26l-1.45,0-.9,0a1.8,1.8,0,0,0-.05.19c-.14.71.18,1.27.94,1.27a1.81,1.81,0,0,0,1.11-.49l0,0-.1.34a2.31,2.31,0,0,1-1.22.41,1.27,1.27,0,0,1-1.35-1.61,2,2,0,0,1,1.92-1.79"/><path class="cls-1" d="M163.41,38.43a1.56,1.56,0,0,1,1.05.3,3.21,3.21,0,0,0-.24.45h-.05a.82.82,0,0,0-.77-.53c-.84,0-1.29.64-1.46,1.48s.15,1.42.92,1.42a1.91,1.91,0,0,0,1.12-.49l0,0a1.91,1.91,0,0,0-.1.34,2.35,2.35,0,0,1-1.23.41,1.27,1.27,0,0,1-1.32-1.7,2,2,0,0,1,2.06-1.7"/><path class="cls-1" d="M166.74,38.78c-.64,0-1,.41-1.15,1.12l-.1.59a8.25,8.25,0,0,0-.19,1.28,1.15,1.15,0,0,0-.31,0,1.22,1.22,0,0,0-.32,0c.12-.4.23-.87.31-1.28l.14-.72c.07-.4.15-.88.19-1.27a1.45,1.45,0,0,0,.3,0l.28,0a5.23,5.23,0,0,0-.12.54h0a1.52,1.52,0,0,1,1.22-.61c.5,0,1,.25.86,1.19-.09.39-.2.8-.28,1.26-.06.3-.11.59-.16.89a.9.9,0,0,0-.28,0,1,1,0,0,0-.29,0c.12-.5.25-1,.35-1.53l.08-.41c.14-.67-.09-1-.54-1"/><path class="cls-1" d="M169.88,41.62c.81,0,1.2-.72,1.35-1.49s0-1.48-.77-1.48-1.19.72-1.34,1.48,0,1.49.76,1.49m.63-3.19a1.27,1.27,0,0,1,1.32,1.7,2,2,0,0,1-2,1.7,1.28,1.28,0,0,1-1.33-1.7,2,2,0,0,1,2-1.7"/><path class="cls-1" d="M173.07,38.56c.13-.63.28-1.51.33-2a1,1,0,0,0,.3,0,1.22,1.22,0,0,0,.32,0c-.13.46-.32,1.34-.44,2l-.24,1.23c-.13.64-.28,1.51-.33,2a1,1,0,0,0-.3,0,1.1,1.1,0,0,0-.31,0c.12-.47.31-1.34.44-2l.23-1.23"/><path class="cls-1" d="M175.59,41.62c.8,0,1.2-.72,1.34-1.49s0-1.48-.77-1.48-1.2.72-1.35,1.48,0,1.49.78,1.49m.61-3.19a1.27,1.27,0,0,1,1.32,1.7,2,2,0,0,1-2,1.7,1.27,1.27,0,0,1-1.33-1.7,2,2,0,0,1,2-1.7"/><path class="cls-1" d="M179.72,38.63a1,1,0,0,0-1,.91c-.1.57.08.93.6.93s.84-.45.94-1-.13-.88-.57-.88m-.53,3.1c-.66,0-1.11.21-1.22.79s.27.86.83.86a1.21,1.21,0,0,0,1.28-.89c.1-.53-.16-.76-.89-.76m.56-3.3.56,0,.46,0a3,3,0,0,0,.56,0,.83.83,0,0,0,0,.15s0,.09,0,.14c-.25,0-.49-.05-.74-.06l0,0a.82.82,0,0,1,.3.86,1.39,1.39,0,0,1-1.48,1.09H179a.41.41,0,0,0-.39.31c-.05.24,0,.34.34.35l.75,0c.82,0,1.09.39,1,.87a1.82,1.82,0,0,1-1.89,1.39c-.87,0-1.36-.38-1.23-1a1.21,1.21,0,0,1,.91-.9v0a.43.43,0,0,1-.33-.54.77.77,0,0,1,.59-.57v0a.83.83,0,0,1-.47-1,1.42,1.42,0,0,1,1.52-1.11"/><path class="cls-1" d="M183.31,36.89a.56.56,0,0,1,.34-.16.18.18,0,0,1,.18.22c0,.17-.18.25-.31.32l-1.13.65h-.28l1.2-1M182,39.77a11.41,11.41,0,0,0,.18-1.27,1.22,1.22,0,0,0,.62,0,11.15,11.15,0,0,0-.3,1.27l-.14.72c-.08.41-.15.88-.2,1.28a.92.92,0,0,0-.29,0,1.06,1.06,0,0,0-.31,0c.11-.4.22-.87.3-1.28l.14-.72"/><path class="cls-1" d="M185.38,40.05c-.51.15-1.45.1-1.59.85a.48.48,0,0,0,.47.65,1.28,1.28,0,0,0,.9-.48l.22-1m-1.45-1.22a2,2,0,0,1,1.17-.4c.67,0,1,.41.91,1s-.22,1-.33,1.59c0,.23-.1.51.16.51a.3.3,0,0,0,.16,0l0,.15a1.12,1.12,0,0,1-.46.1.35.35,0,0,1-.38-.43,1.7,1.7,0,0,1-1.18.5.69.69,0,0,1-.74-.84,1.19,1.19,0,0,1,1.14-.93c1-.16,1.07-.22,1.12-.48.09-.46,0-.86-.59-.86a1.21,1.21,0,0,0-.95.46h-.07l.07-.35"/></g></g></svg>