<?xml version="1.0" encoding="utf-8"?>
<!-- Generator: Adobe Illustrator 25.3.1, SVG Export Plug-In . SVG Version: 6.00 Build 0)  -->
<svg version="1.1" id="Capa_1" xmlns="http://www.w3.org/2000/svg" xmlns:xlink="http://www.w3.org/1999/xlink" x="0px" y="0px"
	 viewBox="0 0 38 38" style="enable-background:new 0 0 38 38;" xml:space="preserve">
<style type="text/css">
	.st0{clip-path:url(#SVGID_2_);}
	.st1{fill:none;}
	.st2{fill:#FFFFFF;}
</style>
<g id="Grupo_1288" transform="translate(-108 -362)">
	<g>
		<defs>
			<circle id="SVGID_1_" cx="127" cy="381" r="19"/>
		</defs>
		<clipPath id="SVGID_2_">
			<use xlink:href="#SVGID_1_"  style="overflow:visible;"/>
		</clipPath>
		<g class="st0">
			<path class="st1" d="M134.8,367l-21.9,21.5c0.5,1,1.2,1.9,1.9,2.8l22.8-22.3C136.7,368.2,135.8,367.6,134.8,367z"/>
			<path class="st1" d="M139.6,371.2l-22.7,22.2c0.9,0.7,1.9,1.3,2.9,1.9l21.6-21.2C140.9,373.1,140.3,372.1,139.6,371.2z"/>
			<path class="st1" d="M138.3,392.3c1.6-1.6,2.9-3.6,3.7-5.7l-9.7,9.5C134.5,395.3,136.6,394,138.3,392.3z"/>
			<path class="st1" d="M143,381c0-1.3-0.2-2.6-0.5-3.8l-19.7,19.2c1.3,0.4,2.7,0.6,4.1,0.6c0,0,0,0,0.1,0l15.9-15.6
				C143,381.3,143,381.1,143,381z"/>
			<path class="st1" d="M127,365C127,365,126.9,365,127,365l-16,15.6c0,0.1,0,0.3,0,0.4c0,1.6,0.2,3.1,0.6,4.5l20.2-19.8
				C130.3,365.3,128.7,365,127,365z"/>
			<path class="st1" d="M115.7,369.7c-1.6,1.6-2.9,3.6-3.7,5.7l9.7-9.5C119.5,366.7,117.4,368,115.7,369.7z"/>
			<path class="st2" d="M121.7,365.9l-9.7,9.5c-0.6,1.6-1,3.4-1,5.2l15.9-15.6C125.1,365,123.4,365.3,121.7,365.9z"/>
			<path class="st2" d="M131.8,365.7l-20.2,19.8c0.3,1,0.7,2,1.2,3l21.9-21.5C133.9,366.5,132.9,366.1,131.8,365.7z"/>
			<path class="st2" d="M138.3,369.7c-0.2-0.2-0.5-0.5-0.8-0.7l-22.8,22.3c0.3,0.3,0.6,0.7,0.9,1c0.4,0.4,0.8,0.8,1.2,1.1l22.7-22.2
				C139.2,370.7,138.8,370.2,138.3,369.7z"/>
			<path class="st2" d="M141.4,374.1l-21.6,21.2c1,0.5,2,0.9,3.1,1.2l19.7-19.2C142.3,376.1,141.9,375.1,141.4,374.1z"/>
			<path class="st2" d="M127.1,397c1.8,0,3.6-0.3,5.2-0.9l9.7-9.5c0.6-1.6,1-3.4,1-5.2L127.1,397z"/>
			<path class="st2" d="M127,365c1.7,0,3.3,0.3,4.8,0.7l2.4-2.3c-1.4-0.6-2.9-1-4.5-1.2L127,365C126.9,365,127,365,127,365z"/>
			<path class="st2" d="M112.9,388.5l-2.2,2.2c0.6,1,1.2,1.9,2,2.7l2.1-2.1C114,390.4,113.4,389.5,112.9,388.5z"/>
			<path class="st2" d="M116.9,393.4l-2.2,2.1c0.9,0.7,1.8,1.4,2.8,1.9l2.2-2.2C118.8,394.8,117.8,394.1,116.9,393.4z"/>
			<path class="st2" d="M127,397c-1.4,0-2.8-0.2-4.1-0.6l-2.4,2.4c1.2,0.4,2.5,0.8,3.8,1L127,397C127,397,127,397,127,397z"/>
			<path class="st2" d="M115.7,369.7c1.7-1.7,3.8-3,6-3.8l3.9-3.8c-9.3,0.7-16.7,8-17.5,17.2l3.9-3.9
				C112.8,373.3,114,371.3,115.7,369.7z"/>
			<path class="st2" d="M145.9,382.7l-3.9,3.8c-0.8,2.1-2,4.1-3.7,5.7c-1.7,1.7-3.8,3-6,3.8l-3.9,3.8
				C137.6,399.3,145.1,392,145.9,382.7z"/>
			<path class="st2" d="M111,381c0-0.1,0-0.3,0-0.4l-2.9,2.8c0.2,1.6,0.6,3.1,1.1,4.5l2.4-2.3C111.2,384.1,111,382.6,111,381z"/>
			<path class="st2" d="M137.6,369l2.1-2.1c-0.8-0.8-1.7-1.4-2.7-2l-2.2,2.2C135.8,367.6,136.7,368.2,137.6,369z"/>
			<path class="st2" d="M143,381c0,0.1,0,0.3,0,0.4l2.9-2.8c-0.2-1.3-0.5-2.6-0.9-3.8l-2.4,2.4C142.8,378.4,143,379.7,143,381z"/>
			<path class="st2" d="M141.4,374.1l2.3-2.2c-0.5-1-1.2-1.9-1.9-2.8l-2.2,2.1C140.3,372.1,140.9,373.1,141.4,374.1z"/>
			<path class="st2" d="M126.9,365l2.8-2.8c-0.9-0.1-1.8-0.2-2.8-0.2c-0.5,0-0.9,0-1.4,0.1l-3.9,3.8
				C123.4,365.3,125.1,365,126.9,365z"/>
			<path class="st2" d="M112,375.4l-3.9,3.9c-0.1,0.6-0.1,1.2-0.1,1.8c0,0.8,0.1,1.6,0.2,2.4l2.9-2.8
				C111.1,378.8,111.4,377,112,375.4z"/>
			<path class="st2" d="M134.8,367l2.2-2.2c-0.9-0.6-1.8-1-2.8-1.5l-2.4,2.3C132.9,366.1,133.9,366.5,134.8,367z"/>
			<path class="st2" d="M111.6,385.5l-2.4,2.3c0.4,1,0.8,1.9,1.4,2.8l2.2-2.2C112.4,387.6,112,386.6,111.6,385.5z"/>
			<path class="st2" d="M138.3,369.7c0.5,0.5,0.9,1,1.3,1.5l2.2-2.1c-0.6-0.8-1.3-1.5-2.1-2.2l-2.1,2.1
				C137.8,369.2,138.1,369.4,138.3,369.7z"/>
			<path class="st2" d="M115.7,392.3c-0.3-0.3-0.6-0.7-0.9-1l-2.1,2.1c0.7,0.8,1.4,1.5,2.1,2.1l2.2-2.1
				C116.5,393.1,116.1,392.7,115.7,392.3z"/>
			<path class="st2" d="M119.8,395.3l-2.2,2.2c0.9,0.5,1.9,1,2.9,1.4l2.4-2.4C121.8,396.2,120.8,395.8,119.8,395.3z"/>
			<path class="st2" d="M142.5,377.2l2.4-2.4c-0.4-1-0.8-2-1.3-2.9l-2.3,2.2C141.9,375.1,142.3,376.1,142.5,377.2z"/>
			<path class="st2" d="M142,386.6l3.9-3.8c0.1-0.6,0.1-1.2,0.1-1.7c0-0.8-0.1-1.6-0.2-2.4l-2.9,2.8
				C142.9,383.2,142.6,385,142,386.6z"/>
			<path class="st2" d="M127.1,397l-2.8,2.8c0.9,0.1,1.8,0.2,2.8,0.2c0.5,0,0.9,0,1.4-0.1l3.9-3.8C130.6,396.7,128.9,397,127.1,397z
				"/>
		</g>
	</g>
	<g id="Trazado_23685" transform="translate(108 362)">
		<g>
			<path class="st1" d="M19,0c10.5,0,19,8.5,19,19s-8.5,19-19,19S0,29.5,0,19S8.5,0,19,0z"/>
		</g>
		<g>
			<path class="st2" d="M19,3c-4.3,0-8.3,1.7-11.3,4.7S3,14.7,3,19s1.7,8.3,4.7,11.3S14.7,35,19,35s8.3-1.7,11.3-4.7S35,23.3,35,19
				s-1.7-8.3-4.7-11.3S23.3,3,19,3 M19,0c10.5,0,19,8.5,19,19s-8.5,19-19,19S0,29.5,0,19S8.5,0,19,0z"/>
		</g>
	</g>
</g>
</svg>
