<svg xmlns="http://www.w3.org/2000/svg" width="32.582" height="36.677" viewBox="0 0 32.582 36.677">
  <g id="Grupo_1284" data-name="Grupo 1284" transform="translate(0.614 39.342) rotate(-91)">
    <path id="Trazado_388" data-name="Trazado 388" d="M11.455,0H.6A.6.6,0,0,0,.078.9L5.5,10.545a.627.627,0,0,0,1.05,0L11.979.9a.6.6,0,0,0-.524-.9ZM1.634,1.206h0Z" transform="matrix(0.999, 0.052, -0.052, 0.999, 27.015, 16.151)" fill="#fff"/>
    <path id="Trazado_23686" data-name="Trazado 23686" d="M-115.292,170.533a14.541,14.541,0,0,0-14.541,14.541,14.541,14.541,0,0,0,14.541,14.541,14.541,14.541,0,0,0,14.541-14.541" transform="translate(201.713 134.51) rotate(91)" fill="none" stroke="#fff" stroke-linecap="round" stroke-miterlimit="10" stroke-width="3.5"/>
  </g>
</svg>
