<?xml version="1.0" encoding="utf-8"?>
<!-- Generator: Adobe Illustrator 25.3.1, SVG Export Plug-In . SVG Version: 6.00 Build 0)  -->
<svg version="1.1" id="Capa_1" xmlns="http://www.w3.org/2000/svg" xmlns:xlink="http://www.w3.org/1999/xlink" x="0px" y="0px"
	 viewBox="0 0 42.8 44.6" style="enable-background:new 0 0 42.8 44.6;" xml:space="preserve">
<style type="text/css">
	.st0{fill:none;}
	.st1{fill:#FFFFFF;}
</style>
<g>
	<polygon class="st0" points="5.5,30.1 9.9,30.1 7.7,25.2 	"/>
	<path class="st1" d="M7,23L1.9,34.4h1.2l1.3-3H11l1.3,3h1.2L8.4,23H7z M4.8,30.6l3-6.7l3,6.7H4.8z"/>
	<path class="st1" d="M5.1,30.4h5.1l-2.6-5.8L5.1,30.4z M5.5,30.1l2.2-5l2.2,5H5.5z"/>
	<path class="st1" d="M6.7,22.5L1.1,34.9h2.3l1.3-3h6l1.3,3h2.3L8.7,22.5H6.7z M12.2,34.7l-1.3-3H4.5l-1.3,3H1.5l5.4-11.9h1.7
		L14,34.7H12.2z"/>
	<path class="st1" d="M6.9,22.8L1.5,34.7h1.8l1.3-3h6.3l1.3,3H14L8.6,22.8H6.9z M12.3,34.4l-1.3-3H4.4l-1.3,3H1.9L7,23h1.4l5.2,11.4
		H12.3z"/>
	<path class="st1" d="M4.8,30.6h5.9l-3-6.7L4.8,30.6z M5.1,30.4l2.6-5.8l2.6,5.8H5.1z"/>
	<path class="st1" d="M30.3,10.2H27L15.7,35.1h3.4l2.8-6.3h13.6l0,0.1l2.7,6.2h3.5L30.3,10.2z M23,26.3l0.1-0.2l5.6-12.7l0.1,0.3
		l5.5,12.6H23z"/>
</g>
</svg>
