<svg xmlns="http://www.w3.org/2000/svg" width="38" height="38" viewBox="0 0 38 38">
  <g id="Grupo_1289" data-name="Grupo 1289" transform="translate(-208 -240)">
    <path id="Trazado_17107" data-name="Trazado 17107" d="M21.356,34.155V8a12.041,12.041,0,0,1,10.628,6.248,12.848,12.848,0,0,1-.064,13.774A12.037,12.037,0,0,1,21.356,34.155Z" transform="translate(207.125 238.003)" fill="#fff"/>
    <g id="Trazado_17283" data-name="Trazado 17283" transform="translate(208 240)" fill="none">
      <path d="M19,0A19.112,19.112,0,0,1,35.5,9.579,18.64,18.64,0,0,1,38,19,19,19,0,1,1,19,0Z" stroke="none"/>
      <path d="M 19 3 C 14.72624969482422 3 10.70829010009766 4.664291381835938 7.686290740966797 7.686290740966797 C 4.664291381835938 10.70829010009766 3 14.72624969482422 3 19 C 3 23.27375030517578 4.664291381835938 27.29170989990234 7.686290740966797 30.3137092590332 C 10.70829010009766 33.33570861816406 14.72624969482422 35 19 35 C 23.27375030517578 35 27.29170989990234 33.33570861816406 30.3137092590332 30.3137092590332 C 33.33570861816406 27.29170989990234 35 23.27375030517578 35 19 C 35 16.16422080993652 34.26308822631836 13.36297988891602 32.9232292175293 11.10927963256836 C 31.45862007141113 8.639240264892578 29.42370986938477 6.590250015258789 27.03847885131836 5.183830261230469 C 24.61550903320312 3.755161285400391 21.83584976196289 3 19 3 M 19 0 C 25.95713043212891 0 32.04090881347656 3.739231109619141 35.50370025634766 9.579200744628906 C 37.03392028808594 12.15307998657227 38 15.46372032165527 38 19 C 38 29.49341011047363 29.49341011047363 38 19 38 C 8.506589889526367 38 0 29.49341011047363 0 19 C 0 8.506589889526367 8.506589889526367 0 19 0 Z" stroke="none" fill="#fff"/>
    </g>
  </g>
</svg>
