<?xml version="1.0" encoding="utf-8"?>
<!-- Generator: Adobe Illustrator 25.3.1, SVG Export Plug-In . SVG Version: 6.00 Build 0)  -->
<svg version="1.1" id="Capa_1" xmlns="http://www.w3.org/2000/svg" xmlns:xlink="http://www.w3.org/1999/xlink" x="0px" y="0px"
	 viewBox="0 0 30 59" style="enable-background:new 0 0 30 59;" xml:space="preserve">
<style type="text/css">
	.st0{fill:#FFFFFF;}
</style>
<g>
	<path class="st0" d="M16.7,40.4c-0.6-0.6-1.4-0.9-2.3-0.9c-1,0-1.7,0.3-2.4,0.9c-0.6,0.6-0.9,1.3-0.9,2.2c0,0.9,0.3,1.6,0.9,2.3
		c0.6,0.6,1.4,0.9,2.3,0.9c0.9,0,1.7-0.3,2.3-0.9c0.6-0.6,0.9-1.3,0.9-2.3C17.7,41.8,17.4,41,16.7,40.4z"/>
	<path class="st0" d="M20.6,29c1-0.9,1.7-1.6,2.3-2.3c0.6-0.6,1-1.4,1.4-2.3c0.4-0.9,0.6-2,0.6-3.2c0-2.5-1-4.4-2.9-5.9
		c-2-1.4-4.7-2.2-8.1-2.2c-2.8,0-5.3,0.5-7.3,1.4c-1.9,0.9-3.5,2.1-4.7,3.7l3.7,2.4c1.8-2.3,4.4-3.4,7.8-3.4c1.9,0,3.4,0.4,4.6,1.3
		c1.2,0.9,1.8,2.1,1.8,3.6c0,1-0.3,2-0.9,2.8c-0.6,0.8-1.4,1.7-2.6,2.7c-1.4,1.3-2.5,2.5-3.3,3.6c-0.6,0.9-1,2.1-1.1,3.4h5
		c0.1-1,0.4-1.9,0.9-2.7C18.5,31.1,19.4,30.1,20.6,29z"/>
</g>
</svg>
