<svg xmlns="http://www.w3.org/2000/svg" viewBox="0 0 1280 375.44"><defs><style>.cls-1{fill:#002663;}</style></defs><g id="Capa_2" data-name="Capa 2"><g id="Capa_1-2" data-name="Capa 1"><path class="cls-1" d="M188.66,199.16a11,11,0,1,0-11-11,11,11,0,0,0,11,11"/><path class="cls-1" d="M217.53,195.38A12.53,12.53,0,1,0,205,182.85a12.53,12.53,0,0,0,12.53,12.53"/><path class="cls-1" d="M248.09,181.1a14.87,14.87,0,1,0-14.88-14.87,14.85,14.85,0,0,0,14.88,14.87"/><path class="cls-1" d="M273.25,181.87A21.15,21.15,0,1,1,294.41,203a21.16,21.16,0,0,1-21.16-21.14"/><path class="cls-1" d="M348,193.56a27.08,27.08,0,1,0-27.09-27.1A27.09,27.09,0,0,0,348,193.56"/><path class="cls-1" d="M344.59,252.08a27.07,27.07,0,1,0-27.07-27,27.06,27.06,0,0,0,27.07,27"/><path class="cls-1" d="M293.76,280.51a27.08,27.08,0,1,1,27.05,27.08,27.06,27.06,0,0,1-27.05-27.08"/><path class="cls-1" d="M279,349.26a27.08,27.08,0,1,0-27.1-27.05A27.06,27.06,0,0,0,279,349.26"/><path class="cls-1" d="M197.78,345.09a27.07,27.07,0,1,1,27.09,27.1,27.08,27.08,0,0,1-27.09-27.1"/><path class="cls-1" d="M137.92,348.4a27.07,27.07,0,1,1,27.06,27,27.09,27.09,0,0,1-27.06-27"/><path class="cls-1" d="M79.78,328.27a27.07,27.07,0,1,1,27.07,27.08,27.07,27.07,0,0,1-27.07-27.08"/><path class="cls-1" d="M35.37,290.46a27.08,27.08,0,1,1,27.09,27.08,27.07,27.07,0,0,1-27.09-27.08"/><path class="cls-1" d="M7,237.59A27.08,27.08,0,1,1,34,264.65,27.07,27.07,0,0,1,7,237.59"/><path class="cls-1" d="M0,176.29a27.09,27.09,0,1,1,27.1,27.07A27.07,27.07,0,0,1,0,176.29"/><path class="cls-1" d="M330.59,139.3a27.08,27.08,0,1,0-27.07-27.07,27.1,27.1,0,0,0,27.07,27.07"/><path class="cls-1" d="M266.88,67.47A27.08,27.08,0,1,1,294,94.53a27.08,27.08,0,0,1-27.09-27.06"/><path class="cls-1" d="M217,37.33A27.07,27.07,0,1,1,244,64.43,27.09,27.09,0,0,1,217,37.33"/><path class="cls-1" d="M158.56,27.08a27.06,27.06,0,1,1,27,27.07,27.06,27.06,0,0,1-27-27.07"/><path class="cls-1" d="M126.82,66.89a27.07,27.07,0,1,0-27.06-27,27.05,27.05,0,0,0,27.06,27.05"/><path class="cls-1" d="M49.88,71.27A27.06,27.06,0,1,1,76.93,98.35,27.06,27.06,0,0,1,49.88,71.27"/><path class="cls-1" d="M15.68,118.29a27.07,27.07,0,1,1,27.06,27.07,27.07,27.07,0,0,1-27.06-27.07"/><path class="cls-1" d="M228.86,103.14A21.15,21.15,0,1,1,250,124.29a21.14,21.14,0,0,1-21.14-21.15"/><path class="cls-1" d="M185.85,84A21.16,21.16,0,1,1,207,105.18,21.15,21.15,0,0,1,185.85,84"/><path class="cls-1" d="M266,226.82A21.15,21.15,0,1,1,287.13,248,21.14,21.14,0,0,1,266,226.82"/><path class="cls-1" d="M281.17,158.78A21.15,21.15,0,1,0,260,137.62a21.15,21.15,0,0,0,21.13,21.16"/><path class="cls-1" d="M138.71,86a21.15,21.15,0,1,1,21.15,21.15A21.13,21.13,0,0,1,138.71,86"/><path class="cls-1" d="M96.74,108.19a21.17,21.17,0,1,1,21.14,21.13,21.16,21.16,0,0,1-21.14-21.13"/><path class="cls-1" d="M69.72,146.61a21.15,21.15,0,1,1,21.16,21.15,21.14,21.14,0,0,1-21.16-21.15"/><path class="cls-1" d="M60.23,195.07a21.15,21.15,0,1,1,21.14,21.17,21.14,21.14,0,0,1-21.14-21.17"/><path class="cls-1" d="M75.05,242.8A21.15,21.15,0,1,1,96.19,264,21.16,21.16,0,0,1,75.05,242.8"/><path class="cls-1" d="M109.35,277.58a21.16,21.16,0,1,1,21.14,21.14,21.13,21.13,0,0,1-21.14-21.14"/><path class="cls-1" d="M153.34,293.65a21.14,21.14,0,1,1,21.11,21.13,21.13,21.13,0,0,1-21.11-21.13"/><path class="cls-1" d="M222,310.36a21.15,21.15,0,1,0-21.15-21.15A21.13,21.13,0,0,0,222,310.36"/><path class="cls-1" d="M261.31,286.66a21.14,21.14,0,1,0-21.17-21.14,21.12,21.12,0,0,0,21.17,21.14"/><path class="cls-1" d="M197.73,173.77a12.53,12.53,0,1,0-12.52-12.56,12.55,12.55,0,0,0,12.52,12.56"/><path class="cls-1" d="M156.11,166.22a12.54,12.54,0,1,1,12.53,12.52,12.52,12.52,0,0,1-12.53-12.52"/><path class="cls-1" d="M159.56,207.64A12.54,12.54,0,1,0,147,195.07a12.55,12.55,0,0,0,12.53,12.57"/><path class="cls-1" d="M179.92,229.32a12.53,12.53,0,1,0-12.53-12.55,12.54,12.54,0,0,0,12.53,12.55"/><path class="cls-1" d="M207.69,223.44a12.53,12.53,0,1,0-12.51-12.53,12.52,12.52,0,0,0,12.51,12.53"/><path class="cls-1" d="M177,124.05a14.9,14.9,0,1,1,14.9,14.89A14.89,14.89,0,0,1,177,124.05"/><path class="cls-1" d="M211.38,136.32a14.89,14.89,0,1,1,14.89,14.87,14.9,14.9,0,0,1-14.89-14.87"/><path class="cls-1" d="M156.88,146.46a14.89,14.89,0,1,0-14.9-14.9,14.88,14.88,0,0,0,14.9,14.9"/><path class="cls-1" d="M117.18,156.51a14.89,14.89,0,1,1,14.91,14.86,14.89,14.89,0,0,1-14.91-14.86"/><path class="cls-1" d="M109.15,194A14.88,14.88,0,1,1,124,208.87,14.88,14.88,0,0,1,109.15,194"/><path class="cls-1" d="M138.51,243.51a14.88,14.88,0,1,0-14.87-14.88,14.88,14.88,0,0,0,14.87,14.88"/><path class="cls-1" d="M168.58,264.44a14.89,14.89,0,1,0-14.88-14.91,14.88,14.88,0,0,0,14.88,14.91"/><path class="cls-1" d="M188.54,250.79a14.89,14.89,0,1,1,14.9,14.87,14.9,14.9,0,0,1-14.9-14.87"/><path class="cls-1" d="M233.69,248.41a14.88,14.88,0,1,0-14.9-14.89,14.88,14.88,0,0,0,14.9,14.89"/><path class="cls-1" d="M235.33,201.2a14.88,14.88,0,1,1,14.89,14.89,14.89,14.89,0,0,1-14.89-14.89"/><path class="cls-1" d="M525.27,84.92l-2.42,17c.22-2.3.52-3.9,0,0-5.54-4.51-13.07-6.79-22.56-6.79q-28.31,0-42.73,24.55a74,74,0,0,0-10,42.72q1.14,19,13.44,26.93a42.74,42.74,0,0,0,23.63,6.59c9.71,0,18-2.41,25.1-7.26h0a90.72,90.72,0,0,1-1.28,12.1c-.54,4.15-.64,4.73-1.26,9.83-2.56.32-10.45,3.94-24.51,3.94q-20.1,0-34.53-6.68-24.44-11.33-26.33-43.31a89.22,89.22,0,0,1,4.08-32.28q8.91-28.69,33.14-43.6c13.17-8.07,28.47-11.92,45.87-12.11a57.68,57.68,0,0,1,21.36,3.95,10.87,10.87,0,0,0-1,4.46"/><path class="cls-1" d="M602.92,95.09a46.73,46.73,0,0,0-26.27,7.66q-15.21,10.08-21.57,31.38a75.74,75.74,0,0,0-3.32,27.15,41.29,41.29,0,0,0,7.33,22q8.86,12.6,28.39,12.6,26.73,0,41.12-23.45a69.82,69.82,0,0,0,8.09-20.16,78.69,78.69,0,0,0,2.07-22.39c-.84-13.7-5.78-23.43-14.85-29.28q-8.37-5.42-21-5.52M606,76.51q28.65,0,44.39,15.09,13.25,12.62,14.48,33.16a103.61,103.61,0,0,1-5.31,39q-9,27.61-34.52,41.38-17.7,9.41-40.36,9.39-28.87,0-44.61-15.1-13.23-12.79-14.49-33a102.88,102.88,0,0,1,5.44-39q9.21-27.78,34.53-41.4,17.16-9.28,40.45-9.48"/><polygon class="cls-1" points="814.08 79.42 793.92 211.69 770.56 211.69 710.34 117.38 695.93 211.69 672.59 211.69 692.76 79.42 715.52 79.42 776.18 174.69 790.72 79.42 814.08 79.42"/><path class="cls-1" d="M902.37,158.57l-11.77-52-28.27,52ZM909,79.42l31.3,132.27H914l-8.22-35.55H852.93L834,211.69h-25.1l74-132.27H909"/><polygon class="cls-1" points="1162.64 79.42 1188.91 79.42 1129.08 154.79 1120.38 211.69 1096.55 211.69 1105.18 155.26 1067.67 79.42 1096.44 79.42 1121.96 133 1162.64 79.42"/><polygon class="cls-1" points="1236.67 97.9 1219.24 211.68 1195.41 211.68 1212.8 97.9 1173.74 97.9 1176.62 79.42 1280 79.42 1277.16 97.9 1236.67 97.9"/><path class="cls-1" d="M1056.33,84l-2.4,16.94c.17-2.31.5-3.89,0,0q-8.36-6.81-22.61-6.79-28.32,0-42.72,24.53a74.17,74.17,0,0,0-10,42.74q1.16,19,13.44,26.93a42.84,42.84,0,0,0,23.65,6.6q14.53,0,25.08-7.28h0c-.16,5.8-.63,7.32-1.25,12.11-.56,4.14-.62,4.74-1.29,9.85-2.55.31-10.44,3.92-24.51,3.92-13.37,0-24.9-2.21-34.51-6.69q-24.43-11.31-26.35-43.33a88.45,88.45,0,0,1,4.07-32.24Q965.82,102.64,990,87.7c13.2-8.09,28.51-11.9,45.9-12.13a57.38,57.38,0,0,1,21.35,4,11.19,11.19,0,0,0-1,4.47"/><path class="cls-1" d="M444.24,283.85A20.85,20.85,0,0,1,434,286.5c-9.88,0-15.87-6.11-13.81-16.72S430.64,253,441,253a21.86,21.86,0,0,1,9.73,2.16,18.09,18.09,0,0,0-1.7,3.65l-.3.1a9.83,9.83,0,0,0-8.06-4.16c-7.37,0-13.88,4.62-15.86,15s2.67,15,10,15c4.45,0,8.19-2.5,10.23-3.86l.14.15-.95,2.79"/><path class="cls-1" d="M459.49,284.89c5.5,0,8.22-4.92,9.22-10.15s.21-10.16-5.26-10.16-8.2,4.91-9.24,10.16-.24,10.15,5.28,10.15m4.23-21.81c5.43,0,10.75,3.14,9.11,11.66s-8.21,11.65-13.61,11.65-10.77-3.15-9.12-11.65,8.19-11.66,13.62-11.66"/><path class="cls-1" d="M490,265.51c-4.36,0-6.86,2.81-7.79,7.67l-.81,4a82.56,82.56,0,0,0-1.31,8.74,10.37,10.37,0,0,0-2.09-.22,11.6,11.6,0,0,0-2.14.22c.81-2.67,1.53-5.93,2.08-8.74l1-4.86c.53-2.81,1.08-6.09,1.32-8.76a10.76,10.76,0,0,0,2,.27,13.22,13.22,0,0,0,1.92-.27c-.34,1.27-.6,2.48-.86,3.75h.11a10.51,10.51,0,0,1,8.28-4.22c3.47,0,7.16,1.7,5.93,8.15-.53,2.67-1.27,5.46-1.91,8.65-.38,2.07-.77,4-1,6a9.56,9.56,0,0,0-1.95-.22,9.09,9.09,0,0,0-1.94.22c.74-3.41,1.62-6.83,2.33-10.43l.56-2.85c.88-4.58-.65-7.11-3.7-7.11"/><path class="cls-1" d="M502.5,281.39a5,5,0,0,0,4.66,3.26,5.32,5.32,0,0,0,5.34-4.22c1.13-5.8-10.58-2.37-9.05-10.3.79-4,4.19-7.05,9.16-7.05,2.28,0,3.56.84,4.94,1.3a13.84,13.84,0,0,0-1.78,3.33h-.58a3.35,3.35,0,0,0-3.53-2.91,4.82,4.82,0,0,0-4.75,3.93c-1.19,6.12,10.58,2.36,9,10.26-.68,3.54-4.65,7.4-9.83,7.4a9.93,9.93,0,0,1-5.74-1.56,12.38,12.38,0,0,0,1.54-3.44h.58"/><path class="cls-1" d="M525,272.68c1.92,0,4.09.14,6.08.14s4.25-.1,6.21-.14c.64-3.32.71-8.1-4.17-8.1-4.58,0-7.23,4.74-8.12,8.1m8.32-9.6c6.58,0,8.86,4.36,7.82,9.55-.1.59-.28,1.2-.44,1.81-3.35,0-6.65-.13-10-.13-2.07,0-4.09.11-6.15.13a10.56,10.56,0,0,0-.29,1.32c-1,4.86,1.21,8.65,6.41,8.65a12.58,12.58,0,0,0,7.65-3.34l.2.15-.75,2.29a15.8,15.8,0,0,1-8.36,2.88c-6.71,0-10.4-4.79-9.21-11,1.47-7.58,6.23-12.3,13.1-12.3"/><path class="cls-1" d="M552.76,253a1.92,1.92,0,0,1,1.93,2.38,3,3,0,0,1-2.85,2.39,1.91,1.91,0,0,1-1.92-2.39,3,3,0,0,1,2.84-2.38m-5.82,21.15c.71-3.75,1.44-7.95,1.68-10.62a10.65,10.65,0,0,0,2.06.25,12.68,12.68,0,0,0,2.15-.25c-.79,2.67-1.55,5.94-2.07,8.75l-1,4.86c-.7,3.6-1.19,7.15-1.92,10.79-.5,2.59-.95,4.73-2.81,6.84a10.62,10.62,0,0,1-7.5,3.57v-1.6a3.39,3.39,0,0,0,.74.08c3.57,0,5.1-4.7,5.91-8.76l2.71-13.91"/><path class="cls-1" d="M566.08,284.89c5.54,0,8.22-4.92,9.23-10.15s.23-10.16-5.27-10.16-8.23,4.91-9.23,10.16-.26,10.15,5.27,10.15m4.24-21.81c5.41,0,10.75,3.14,9.1,11.66s-8.21,11.65-13.63,11.65-10.75-3.15-9.09-11.65,8.17-11.66,13.62-11.66"/><path class="cls-1" d="M622.68,286.5c-5.46-8.36-12.23-17.35-18.58-25.85-.39,1.74-1,4.54-2,9.49-.79,4-2.5,13.89-2.65,15.76a6,6,0,0,0-1.58-.22,8.64,8.64,0,0,0-1.76.22c.79-2.18,3.71-14.17,4.91-20.35,1.19-5.88,2.05-10.42,2.32-12.53h.73c6,8.29,14.18,19.57,18.75,25.3,1.65-8.38,3.4-17.49,4.44-24.67a7.2,7.2,0,0,0,1.52.2,6.16,6.16,0,0,0,1.54-.22c-.8,2.76-3.06,12-3.79,15.69-.92,4.73-2.83,15.1-3.19,17.18h-.66"/><path class="cls-1" d="M646.14,274.11c-3.44,1.09-9.93.76-10.9,5.86-.59,2.95,1.14,4.44,3.19,4.44a8.48,8.48,0,0,0,6.17-3.29l1.54-7m-9.93-8.31a13.59,13.59,0,0,1,8-2.72c4.49,0,7,2.76,6.24,6.93-.67,3.5-1.54,7-2.31,10.9-.29,1.55-.65,3.44,1.14,3.44a2.3,2.3,0,0,0,1-.17l-.2,1a8.69,8.69,0,0,1-3.1.66,2.47,2.47,0,0,1-2.67-2.92c-2.7,2.26-4.83,3.44-8,3.44s-5.78-2.21-5.1-5.77c.74-3.74,3.66-5.75,7.84-6.4,7-1.08,7.32-1.49,7.66-3.3.61-3.13-.25-5.87-4-5.87a8.25,8.25,0,0,0-6.53,3.18h-.51l.48-2.43"/><path class="cls-1" d="M670,263.08c3.4,0,6.17,1,7.11,2.05a22,22,0,0,0-1.63,3.09h-.39a5.6,5.6,0,0,0-5.26-3.64c-5.67,0-8.79,4.36-9.93,10.11-1.24,6.38,1,9.72,6.19,9.72a12.61,12.61,0,0,0,7.7-3.34l.2.15c-.29.76-.53,1.56-.73,2.29a16,16,0,0,1-8.39,2.88c-5.41,0-10.72-3.27-9.09-11.65A14.09,14.09,0,0,1,670,263.08"/><path class="cls-1" d="M688,253a1.9,1.9,0,0,1,1.91,2.39A3,3,0,0,1,687,257.8a1.92,1.92,0,0,1-1.93-2.39A3,3,0,0,1,688,253m-5.49,19.28a85.91,85.91,0,0,0,1.32-8.75,11.71,11.71,0,0,0,2.08.26,13.29,13.29,0,0,0,2.14-.26c-.81,2.67-1.52,5.93-2.08,8.75l-.94,4.86c-.55,2.82-1.11,6.07-1.34,8.74a10.64,10.64,0,0,0-2-.23,12.7,12.7,0,0,0-2.15.23c.8-2.67,1.54-5.92,2.08-8.74l.94-4.86"/><path class="cls-1" d="M701.26,284.89c5.52,0,8.17-4.92,9.22-10.15s.22-10.16-5.28-10.16S697,269.49,696,274.74s-.25,10.15,5.28,10.15m4.23-21.81c5.43,0,10.75,3.14,9.12,11.66S706.4,286.39,701,286.39s-10.76-3.15-9.1-11.65,8.19-11.66,13.62-11.66"/><path class="cls-1" d="M731.73,265.51c-4.37,0-6.86,2.81-7.78,7.67l-.82,4c-.53,2.81-1,6.07-1.31,8.74a9.88,9.88,0,0,0-2-.22,11.39,11.39,0,0,0-2.16.22c.79-2.67,1.54-5.93,2.08-8.74l.94-4.86c.53-2.81,1.08-6.09,1.32-8.76a10.65,10.65,0,0,0,2,.27,14.32,14.32,0,0,0,1.93-.27c-.35,1.27-.63,2.48-.87,3.75h.08a10.56,10.56,0,0,1,8.34-4.22c3.43,0,7.13,1.7,5.86,8.15-.51,2.67-1.22,5.46-1.87,8.65-.4,2.07-.78,4-1.07,6a9,9,0,0,0-1.92-.22,9.81,9.81,0,0,0-2,.22c.76-3.41,1.65-6.83,2.37-10.43l.56-2.85c.88-4.58-.67-7.11-3.73-7.11"/><path class="cls-1" d="M758,274.11c-3.44,1.09-10,.76-10.92,5.86-.6,2.95,1.15,4.44,3.19,4.44a8.52,8.52,0,0,0,6.17-3.29l1.56-7m-10-8.31c3.23-2.13,5.58-2.72,8-2.72,4.51,0,7.06,2.76,6.24,6.93-.67,3.5-1.55,7-2.28,10.9-.32,1.55-.69,3.44,1.14,3.44a2.24,2.24,0,0,0,1-.17l-.18,1a9,9,0,0,1-3.14.66,2.45,2.45,0,0,1-2.64-2.92c-2.67,2.26-4.84,3.44-8,3.44s-5.76-2.21-5.08-5.77c.74-3.74,3.65-5.75,7.83-6.4,7-1.08,7.29-1.49,7.64-3.3.62-3.13-.25-5.87-4-5.87a8.13,8.13,0,0,0-6.49,3.18h-.51l.45-2.43"/><path class="cls-1" d="M772.51,264c.8-4.29,1.89-10.34,2.22-13.48a7.37,7.37,0,0,0,2,.26,8.6,8.6,0,0,0,2.18-.26c-.9,3.14-2.18,9.19-3,13.48l-1.64,8.49c-.85,4.29-1.92,10.33-2.26,13.46a9.77,9.77,0,0,0-2.06-.24,11.12,11.12,0,0,0-2.13.24c.87-3.13,2.13-9.17,3-13.46l1.67-8.49"/><path class="cls-1" d="M802.23,284.65c4.9,0,8-5.29,9-10.39,1.18-5.9-.56-9.21-5-9.21s-7.48,4.44-8.59,10.11c-1.44,7.46,1.58,9.49,4.6,9.49m7.58-3.32h-.07a11,11,0,0,1-8.92,5.06c-4.72,0-8.83-3.48-7.25-11.52s7.49-11.79,12.35-11.79c3.46,0,5.59,1.65,6.27,4.68h.11c1.15-5.9,2.59-13.23,3.17-17.28a12.1,12.1,0,0,0,2,.26,13.77,13.77,0,0,0,2.15-.26c-1.17,3.94-3.69,16.22-5.25,24.21-.84,4.24-1.39,7.47-2,11.22a17.53,17.53,0,0,0-1.77-.24,18.31,18.31,0,0,0-1.84.24l1-4.58"/><path class="cls-1" d="M823.93,272.68c1.91,0,4.12.14,6.05.14s4.28-.1,6.24-.14c.67-3.32.69-8.1-4.18-8.1-4.59,0-7.23,4.74-8.11,8.1m8.33-9.6c6.52,0,8.82,4.36,7.82,9.55a18.59,18.59,0,0,1-.47,1.81c-3.32,0-6.64-.13-10-.13-2,0-4.09.11-6.14.13a13,13,0,0,0-.31,1.32c-1,4.86,1.2,8.65,6.39,8.65a12.53,12.53,0,0,0,7.67-3.34l.2.15-.7,2.29a16.24,16.24,0,0,1-8.4,2.88c-6.72,0-10.42-4.79-9.19-11,1.46-7.58,6.2-12.3,13.09-12.3"/><path class="cls-1" d="M881,283.85a21,21,0,0,1-10.25,2.65c-9.86,0-15.88-6.11-13.82-16.72S867.43,253,877.76,253a21.75,21.75,0,0,1,9.72,2.16,21.34,21.34,0,0,0-1.71,3.65l-.28.1a9.84,9.84,0,0,0-8.06-4.16c-7.37,0-13.88,4.62-15.88,15s2.66,15,10,15c4.45,0,8.22-2.5,10.27-3.86l.14.15-1,2.79"/><path class="cls-1" d="M895.94,253a1.93,1.93,0,0,1,1.93,2.39A3.08,3.08,0,0,1,895,257.8a1.92,1.92,0,0,1-1.93-2.39,3.06,3.06,0,0,1,2.85-2.39m-5.49,19.28a80.84,80.84,0,0,0,1.34-8.75,12,12,0,0,0,2.07.26,13.83,13.83,0,0,0,2.15-.26c-.81,2.67-1.54,5.93-2.08,8.75l-.94,4.86c-.55,2.82-1.07,6.07-1.32,8.74a11.41,11.41,0,0,0-2.07-.23,12.61,12.61,0,0,0-2.17.23c.8-2.67,1.54-5.92,2.08-8.74l.94-4.86"/><path class="cls-1" d="M904.51,272.68c1.93,0,4.1.14,6.08.14s4.27-.1,6.24-.14c.63-3.32.68-8.1-4.17-8.1-4.59,0-7.24,4.74-8.15,8.1m8.32-9.6c6.55,0,8.86,4.36,7.85,9.55-.11.59-.29,1.2-.45,1.81-3.35,0-6.68-.13-10-.13-2.05,0-4.06.11-6.13.13-.14.47-.22.9-.31,1.32-1,4.86,1.21,8.65,6.4,8.65a12.56,12.56,0,0,0,7.68-3.34l.18.15-.73,2.29a16,16,0,0,1-8.34,2.88c-6.75,0-10.44-4.79-9.27-11,1.5-7.58,6.24-12.3,13.12-12.3"/><path class="cls-1" d="M937.11,265.51c-4.36,0-6.86,2.81-7.81,7.67l-.79,4c-.51,2.81-1.08,6.07-1.29,8.74a10.48,10.48,0,0,0-2.07-.22,11.64,11.64,0,0,0-2.16.22c.8-2.67,1.53-5.93,2.06-8.74l1-4.86c.52-2.81,1.08-6.09,1.32-8.76a10.75,10.75,0,0,0,2.06.27,12.82,12.82,0,0,0,1.9-.27c-.32,1.27-.59,2.48-.87,3.75h.1a10.53,10.53,0,0,1,8.3-4.22c3.47,0,7.18,1.7,5.93,8.15-.55,2.67-1.26,5.46-1.88,8.65-.42,2.07-.8,4-1.1,6a9,9,0,0,0-1.89-.22,10.21,10.21,0,0,0-2,.22c.78-3.41,1.67-6.83,2.39-10.43l.56-2.85c.91-4.58-.64-7.11-3.73-7.11"/><path class="cls-1" d="M963.78,263.08c3.41,0,6.19,1,7.12,2.05a24.31,24.31,0,0,0-1.62,3.09h-.38a5.58,5.58,0,0,0-5.28-3.64c-5.64,0-8.79,4.36-9.9,10.11-1.26,6.38,1,9.72,6.2,9.72a12.48,12.48,0,0,0,7.66-3.34l.2.15c-.28.76-.53,1.56-.73,2.29a16,16,0,0,1-8.36,2.88c-5.44,0-10.74-3.27-9.1-11.65a14,14,0,0,1,14.19-11.66"/><path class="cls-1" d="M981.72,253a1.92,1.92,0,0,1,1.93,2.39,3,3,0,0,1-2.85,2.39,1.91,1.91,0,0,1-1.91-2.39,3,3,0,0,1,2.83-2.39m-5.48,19.28a86.19,86.19,0,0,0,1.35-8.75,11.49,11.49,0,0,0,2,.26,14,14,0,0,0,2.16-.26c-.79,2.67-1.52,5.93-2.07,8.75l-.94,4.86c-.56,2.82-1.1,6.07-1.34,8.74a11,11,0,0,0-2.09-.23,12.69,12.69,0,0,0-2.14.23c.8-2.67,1.54-5.92,2.08-8.74l.94-4.86"/><path class="cls-1" d="M999.71,274.11c-3.43,1.09-9.92.76-10.91,5.86-.59,2.95,1.16,4.44,3.2,4.44a8.6,8.6,0,0,0,6.18-3.29l1.53-7m-9.94-8.31c3.22-2.13,5.57-2.72,8.06-2.72,4.51,0,7,2.76,6.23,6.93-.68,3.5-1.53,7-2.29,10.9-.28,1.55-.69,3.44,1.14,3.44a2.45,2.45,0,0,0,1-.17l-.23,1a8.9,8.9,0,0,1-3.11.66,2.47,2.47,0,0,1-2.68-2.92c-2.66,2.26-4.82,3.44-8,3.44s-5.78-2.21-5.08-5.77c.69-3.74,3.61-5.75,7.81-6.4,7-1.08,7.3-1.49,7.66-3.3.59-3.13-.26-5.87-4-5.87a8.13,8.13,0,0,0-6.51,3.18h-.5l.45-2.43"/><path class="cls-1" d="M1023.61,263.55a12.29,12.29,0,0,0,2.11.25,13.73,13.73,0,0,0,2.2-.25c.77,5.89,2.12,11.74,3.47,18a175.8,175.8,0,0,0,10.46-18,6.19,6.19,0,0,0,1.51.25,7.51,7.51,0,0,0,1.58-.25c-2.35,3.42-18.59,28.29-21.78,34.66a5.69,5.69,0,0,0-1.55-.22,6.29,6.29,0,0,0-1.65.22,127,127,0,0,0,8.66-12.24c-1.06-5.62-4.29-19.49-5-22.42"/><path class="cls-1" d="M1069.62,265.74c.63-3.24,1.21-6.45,1.78-9.67a95.3,95.3,0,0,0-10.12.52,5.5,5.5,0,0,0,.5-1.48,6.06,6.06,0,0,0,.06-1.47c4,.12,8,.22,12,.22s8.07-.1,12.09-.22a9.7,9.7,0,0,0-.51,1.49,5.49,5.49,0,0,0,0,1.46,89.57,89.57,0,0,0-9.88-.52c-.76,3.22-1.43,6.43-2,9.67l-1.56,8c-.79,4-1.4,8.11-2,12.13a12.47,12.47,0,0,0-2.25-.24,14.19,14.19,0,0,0-2.35.24c1-4,2-8.1,2.76-12.13l1.53-8"/><path class="cls-1" d="M1085.36,272.68c1.92,0,4.1.14,6.06.14s4.29-.1,6.27-.14c.62-3.32.66-8.1-4.2-8.1-4.58,0-7.24,4.74-8.13,8.1m8.33-9.6c6.56,0,8.83,4.36,7.82,9.55a18.49,18.49,0,0,1-.46,1.81c-3.35,0-6.63-.13-10-.13-2,0-4.09.11-6.15.13a9,9,0,0,0-.29,1.32c-.94,4.86,1.21,8.65,6.38,8.65a12.46,12.46,0,0,0,7.68-3.34l.19.15-.72,2.29a16,16,0,0,1-8.35,2.88c-6.73,0-10.43-4.79-9.25-11,1.51-7.58,6.25-12.3,13.12-12.3"/><path class="cls-1" d="M1118.65,263.08c3.35,0,6.13,1,7.1,2.05a21,21,0,0,0-1.63,3.09h-.38a5.58,5.58,0,0,0-5.25-3.64c-5.69,0-8.82,4.36-9.94,10.11-1.24,6.38,1,9.72,6.24,9.72a12.38,12.38,0,0,0,7.61-3.34l.21.15a19.93,19.93,0,0,0-.71,2.29,16.11,16.11,0,0,1-8.37,2.88c-5.43,0-10.73-3.27-9.09-11.65,1.54-8.11,8.21-11.66,14.21-11.66"/><path class="cls-1" d="M1141.34,265.51c-4.34,0-6.86,2.81-7.81,7.67l-.78,4c-.54,2.81-1.07,6.07-1.32,8.74a9.78,9.78,0,0,0-2-.22,11.12,11.12,0,0,0-2.15.22c.77-2.67,1.5-5.93,2-8.74l1-4.86c.54-2.81,1.09-6.09,1.33-8.76a11.08,11.08,0,0,0,2.05.27,13.52,13.52,0,0,0,1.93-.27c-.34,1.27-.61,2.48-.88,3.75h.1a10.58,10.58,0,0,1,8.3-4.22c3.46,0,7.16,1.7,5.9,8.15-.52,2.67-1.26,5.46-1.86,8.65-.42,2.07-.8,4-1.1,6a9.11,9.11,0,0,0-1.91-.22,9.74,9.74,0,0,0-2,.22c.77-3.41,1.65-6.83,2.37-10.43l.54-2.85c.9-4.58-.59-7.11-3.71-7.11"/><path class="cls-1" d="M1162.91,284.89c5.49,0,8.15-4.92,9.21-10.15s.24-10.16-5.29-10.16-8.2,4.91-9.21,10.16-.25,10.15,5.29,10.15m4.22-21.81c5.43,0,10.75,3.14,9.1,11.66s-8.21,11.65-13.62,11.65-10.79-3.15-9.13-11.65,8.2-11.66,13.65-11.66"/><path class="cls-1" d="M1184.73,264c.84-4.29,1.91-10.34,2.26-13.48a7.3,7.3,0,0,0,2,.26,8.56,8.56,0,0,0,2.16-.26c-.89,3.14-2.16,9.19-3,13.48l-1.66,8.49c-.84,4.29-1.92,10.33-2.25,13.46a10,10,0,0,0-2-.24,11.92,11.92,0,0,0-2.18.24c.91-3.13,2.18-9.17,3-13.46l1.67-8.49"/><path class="cls-1" d="M1201.89,284.89c5.52,0,8.23-4.92,9.22-10.15s.24-10.16-5.25-10.16-8.22,4.91-9.25,10.16-.23,10.15,5.28,10.15m4.23-21.81c5.42,0,10.77,3.14,9.11,11.66s-8.2,11.65-13.63,11.65-10.74-3.15-9.09-11.65,8.19-11.66,13.61-11.66"/><path class="cls-1" d="M1230.19,264.44c-3.35,0-5.78,2.48-6.54,6.28s.44,6.35,4,6.35,5.75-3.13,6.42-6.6c.75-3.84-.87-6-3.93-6m-3.56,21.23c-4.59,0-7.62,1.44-8.41,5.42-.81,4.26,1.86,5.92,5.74,5.92s7.91-1.93,8.71-6.15c.72-3.64-1.09-5.19-6-5.19m3.78-22.59c1.17,0,2.08.09,3.76.19,1.37.07,2.56.19,3.23.19a27.54,27.54,0,0,0,3.83-.22,8.53,8.53,0,0,0-.28.95,5.74,5.74,0,0,0-.1,1c-1.74-.14-3.43-.34-5.13-.38l-.09.09c1.71,1.05,2.53,3.56,2.08,5.93-.91,4.64-4.87,7.46-10.17,7.46-.86,0-1.66-.11-2.54-.11a2.89,2.89,0,0,0-2.7,2.17c-.33,1.63.18,2.33,2.27,2.38,1.75,0,3.41.08,5.12.14,5.7.13,7.5,2.65,6.85,6-.86,4.29-5.07,9.51-12.94,9.51-6,0-9.27-2.59-8.47-6.73.66-3.39,3.59-5.43,6.21-6.18l0-.1a3,3,0,0,1-2.23-3.75,5.43,5.43,0,0,1,4.08-3.9l0-.06c-2.63-1.3-3.92-3.53-3.25-6.92,1-5.21,5.53-7.64,10.42-7.64"/><path class="cls-1" d="M1254.76,252.57a4.1,4.1,0,0,1,2.32-1.16,1.27,1.27,0,0,1,1.26,1.53c-.21,1.12-1.27,1.73-2.09,2.19l-7.75,4.4h-2l8.22-7m-9.25,19.73c.54-2.82,1.09-6.08,1.32-8.75a11.72,11.72,0,0,0,2.06.26,13.28,13.28,0,0,0,2.15-.26c-.8,2.67-1.53,5.93-2.07,8.75l-1,4.86c-.53,2.82-1.07,6.07-1.29,8.74a11.13,11.13,0,0,0-2.08-.23,13.14,13.14,0,0,0-2.16.23,87.66,87.66,0,0,0,2.08-8.74l1-4.86"/><path class="cls-1" d="M1269,274.11c-3.46,1.09-9.92.76-10.91,5.86-.59,2.95,1.14,4.44,3.19,4.44a8.42,8.42,0,0,0,6.14-3.29l1.58-7m-10-8.31a13.71,13.71,0,0,1,8-2.72c4.52,0,7.06,2.76,6.26,6.93-.69,3.5-1.56,7-2.31,10.9-.28,1.55-.68,3.44,1.15,3.44a2.26,2.26,0,0,0,1-.17l-.21,1a8.91,8.91,0,0,1-3.12.66,2.43,2.43,0,0,1-2.63-2.92c-2.68,2.26-4.84,3.44-8,3.44s-5.82-2.21-5.11-5.77c.75-3.74,3.63-5.75,7.84-6.4,7-1.08,7.3-1.49,7.63-3.3.64-3.13-.22-5.87-4-5.87a8.24,8.24,0,0,0-6.54,3.18h-.5l.47-2.43"/></g></g></svg>